<svg xmlns="http://www.w3.org/2000/svg" width="1200" height="630" viewBox="0 0 1200 630" fill="none" role="img" aria-label="Community IP">
  <rect width="1200" height="630" fill="#14532D"/>
  <g transform="translate(380 275) scale(1.05)">
    <g transform="translate(188 4)">
      <path
        d="M32 6c-10.5 0-19 8.5-19 19 0 6.2 3 11.7 7.6 15.2V58h22.8v-7.8c4.6-3.5 7.6-9 7.6-15.2 0-10.5-8.5-19-19-19z"
        fill="rgba(250,250,247,0.1)"
        stroke="#FAFAF7"
        stroke-width="1.4"
      />
      <path d="M32 44V32" stroke="#8FAF9A" stroke-width="2" stroke-linecap="round" />
      <ellipse cx="22" cy="30" rx="2.8" ry="4.8" fill="#8FAF9A" transform="rotate(-28 22 30)" />
      <ellipse cx="42" cy="30" rx="2.8" ry="4.8" fill="#8FAF9A" transform="rotate(28 42 30)" />
      <ellipse cx="32" cy="19" rx="2.4" ry="4" fill="#8FAF9A" />
      <rect x="26" y="58" width="12" height="3" rx="1" fill="#FAFAF7" fill-opacity="0.55" />
      <rect x="27.5" y="62" width="9" height="2.5" rx="1" fill="#FAFAF7" fill-opacity="0.38" />
    </g>
    <text x="4" y="58" font-family="Georgia, serif" font-size="26" letter-spacing="0.16em" fill="#FAFAF7">COMMUNITY</text>
    <text x="292" y="58" font-family="Georgia, serif" font-size="26" letter-spacing="0.16em" fill="#FAFAF7">IP</text>
  </g>
  <text x="600" y="420" text-anchor="middle" font-family="Georgia, serif" font-size="28" fill="#FAFAF7" fill-opacity="0.85">
    Helping underserved inventors obtain intellectual property
  </text>
</svg>
