<svg xmlns="http://www.w3.org/2000/svg" viewBox="0 0 64 64" fill="none" role="img" aria-label="Community IP">
  <rect width="64" height="64" rx="8" fill="#14532D"/>
  <!-- Lightbulb glass -->
  <path d="M32 8c-8.8 0-16 7.2-16 16 0 5.2 2.5 9.8 6.4 12.7V42h19.2v-5.3C45.5 33.8 48 29.2 48 24 48 15.2 40.8 8 32 8z" fill="#FAFAF7" fill-opacity="0.15" stroke="#FAFAF7" stroke-width="1.5"/>
  <!-- Tree trunk -->
  <path d="M32 38V28" stroke="#8FAF9A" stroke-width="2" stroke-linecap="round"/>
  <!-- Branches -->
  <path d="M32 28c-4-3-8-2-10 1M32 28c4-3 8-2 10 1M32 32c-5-2-8 0-9 3M32 32c5-2 8 0 9 3" stroke="#8FAF9A" stroke-width="1.5" stroke-linecap="round"/>
  <!-- Leaves -->
  <ellipse cx="22" cy="27" rx="3" ry="5" fill="#8FAF9A" transform="rotate(-30 22 27)"/>
  <ellipse cx="42" cy="27" rx="3" ry="5" fill="#8FAF9A" transform="rotate(30 42 27)"/>
  <ellipse cx="26" cy="22" rx="2.5" ry="4" fill="#8FAF9A" transform="rotate(-20 26 22)"/>
  <ellipse cx="38" cy="22" rx="2.5" ry="4" fill="#8FAF9A" transform="rotate(20 38 22)"/>
  <ellipse cx="32" cy="18" rx="2.5" ry="4" fill="#8FAF9A"/>
  <!-- Bulb base -->
  <rect x="26" y="42" width="12" height="3" rx="1" fill="#FAFAF7" fill-opacity="0.6"/>
  <rect x="27" y="46" width="10" height="2.5" rx="1" fill="#FAFAF7" fill-opacity="0.4"/>
  <rect x="28" y="49.5" width="8" height="2" rx="1" fill="#FAFAF7" fill-opacity="0.3"/>
</svg>
