<svg xmlns="http://www.w3.org/2000/svg" viewBox="0 0 64 72" fill="none" role="img" aria-label="Community IP">
  <path
    d="M32 4c-11.6 0-21 9.4-21 21 0 6.9 3.3 13 8.4 16.9V68h25.2v-5.1c5.1-3.9 8.4-10 8.4-16.9 0-11.6-9.4-21-21-21z"
    fill="rgba(20,83,45,0.08)"
    stroke="#14532D"
    stroke-width="1.5"
  />
  <path d="M32 48V34" stroke="#6B9478" stroke-width="2.2" stroke-linecap="round" />
  <path
    d="M32 34c-4.5-3.4-9-2.2-11.2 1.2M32 34c4.5-3.4 9-2.2 11.2 1.2M32 39c-5.6-2.2-9 0-10.1 3.4M32 39c5.6-2.2 9 0 10.1 3.4"
    stroke="#8FAF9A"
    stroke-width="1.6"
    stroke-linecap="round"
  />
  <ellipse cx="21" cy="32" rx="3" ry="5.2" fill="#8FAF9A" transform="rotate(-28 21 32)" />
  <ellipse cx="43" cy="32" rx="3" ry="5.2" fill="#8FAF9A" transform="rotate(28 43 32)" />
  <ellipse cx="26" cy="26" rx="2.6" ry="4.2" fill="#8FAF9A" transform="rotate(-18 26 26)" />
  <ellipse cx="38" cy="26" rx="2.6" ry="4.2" fill="#8FAF9A" transform="rotate(18 38 26)" />
  <ellipse cx="32" cy="21" rx="2.6" ry="4.2" fill="#8FAF9A" />
  <rect x="26" y="68" width="12" height="3" rx="1" fill="#14532D" fill-opacity="0.45" />
</svg>
