<svg xmlns="http://www.w3.org/2000/svg" viewBox="0 0 320 80" fill="none" role="img" aria-label="Community IP">
  <!-- Icon mark -->
  <rect x="4" y="4" width="72" height="72" rx="6" fill="#FAFAF7" fill-opacity="0.12" stroke="#FAFAF7" stroke-width="1"/>
  <path d="M40 16c-9.9 0-18 8.1-18 18 0 5.9 2.8 11.1 7.2 14.4V58h21.6v-9.6C54.2 45.1 58 39.9 58 34c0-9.9-8.1-18-18-18z" fill="#FAFAF7" fill-opacity="0.08" stroke="#FAFAF7" stroke-width="1.5"/>
  <path d="M40 52V38" stroke="#8FAF9A" stroke-width="2.2" stroke-linecap="round"/>
  <path d="M40 38c-4.5-3.4-9-2.2-11.2 1.2M40 38c4.5-3.4 9-2.2 11.2 1.2M40 43c-5.6-2.2-9 0-10.1 3.4M40 43c5.6-2.2 9 0 10.1 3.4" stroke="#8FAF9A" stroke-width="1.6" stroke-linecap="round"/>
  <ellipse cx="27" cy="36" rx="3.2" ry="5.5" fill="#8FAF9A" transform="rotate(-30 27 36)"/>
  <ellipse cx="53" cy="36" rx="3.2" ry="5.5" fill="#8FAF9A" transform="rotate(30 53 36)"/>
  <ellipse cx="32" cy="30" rx="2.8" ry="4.5" fill="#8FAF9A" transform="rotate(-20 32 30)"/>
  <ellipse cx="48" cy="30" rx="2.8" ry="4.5" fill="#8FAF9A" transform="rotate(20 48 30)"/>
  <ellipse cx="40" cy="25" rx="2.8" ry="4.5" fill="#8FAF9A"/>
  <rect x="33" y="58" width="14" height="3.5" rx="1" fill="#FAFAF7" fill-opacity="0.55"/>
  <rect x="34.5" y="63" width="11" height="3" rx="1" fill="#FAFAF7" fill-opacity="0.35"/>
  <rect x="36" y="67.5" width="8" height="2.5" rx="1" fill="#FAFAF7" fill-opacity="0.25"/>
  <!-- Wordmark -->
  <text x="92" y="50" font-family="Georgia, 'Times New Roman', serif" font-size="26" font-weight="400" letter-spacing="0.12em" fill="#FAFAF7">COMMUNITY IP</text>
</svg>
