<svg xmlns="http://www.w3.org/2000/svg" viewBox="0 0 32 32" fill="none">
  <rect width="32" height="32" rx="4" fill="#14532D"/>
  <path d="M16 5c-4.4 0-8 3.6-8 8 0 2.6 1.2 4.9 3.2 6.4V23h9.6v-3.6C22.8 18.9 24 16.6 24 13c0-4.4-3.6-8-8-8z" fill="#FAFAF7" fill-opacity="0.15" stroke="#FAFAF7" stroke-width="1"/>
  <path d="M16 19V14" stroke="#8FAF9A" stroke-width="1.2" stroke-linecap="round"/>
  <ellipse cx="12" cy="13" rx="1.5" ry="2.5" fill="#8FAF9A" transform="rotate(-30 12 13)"/>
  <ellipse cx="20" cy="13" rx="1.5" ry="2.5" fill="#8FAF9A" transform="rotate(30 20 13)"/>
  <ellipse cx="16" cy="10" rx="1.3" ry="2" fill="#8FAF9A"/>
  <rect x="13" y="23" width="6" height="1.5" rx="0.5" fill="#FAFAF7" fill-opacity="0.5"/>
  <rect x="13.5" y="25" width="5" height="1.2" rx="0.5" fill="#FAFAF7" fill-opacity="0.35"/>
</svg>
